<svg width="201" height="216" viewBox="0 0 201 216" fill="none" xmlns="http://www.w3.org/2000/svg">
<path fill-rule="evenodd" clip-rule="evenodd" d="M102.814 2.11371C132.475 10.2551 133.311 51.2271 152.197 75.3277C166.602 93.7103 193.569 101.559 198.568 124.306C204.411 150.897 199.696 181.926 179.723 200.586C160.037 218.98 129.66 217.027 102.814 213.771C79.6867 210.966 59.8516 199.567 42.6661 183.962C24.4298 167.404 8.74706 148.426 4.28583 124.306C-1.21087 94.5886 -3.38639 61.4412 15.6399 37.8452C36.0544 12.5275 71.3124 -6.53295 102.814 2.11371Z" fill="#7366FF" fill-opacity="0.1"/>
<g clip-path="url(#clip0_390_272)">
<path d="M169.698 162.478L161.114 167.631H123.443L118.43 160.42C118.43 148.615 117.473 145.927 118.398 139.819C118.703 137.832 115.565 131.763 117.291 130.727C119.052 129.671 120.864 128.733 122.67 127.904C122.677 127.904 122.683 127.9 122.689 127.897C124.253 127.176 125.811 126.54 127.328 125.971C133.381 123.697 138.76 122.575 141.075 122.159C141.869 122.016 142.683 122.016 143.481 122.159C145.793 122.575 151.172 123.697 157.225 125.971C160.5 127.195 163.975 128.756 167.262 130.727C168.988 131.763 165.352 137.832 165.657 139.819C166.582 145.927 169.698 150.674 169.698 162.478Z" fill="#5766CB"/>
<path d="M122.689 127.897C121.354 129.017 120.445 130.902 120.21 133.028C119.488 139.606 117.962 154.914 117.962 167.631H111.219C111.219 155.827 117.472 145.927 118.398 139.819C118.703 137.832 115.565 131.763 117.291 130.727C119.052 129.671 120.864 128.733 122.67 127.904C122.677 127.904 122.683 127.901 122.689 127.897Z" fill="#3D4FC3"/>
<path d="M132.484 140.288C132.484 140.288 134.156 143.316 136.857 146.562C138.376 148.387 140.22 146.302 142.276 147.764C144.332 146.302 146.176 148.387 147.695 146.562C150.397 143.316 152.068 140.288 152.068 140.288V127.896H132.484V140.288Z" fill="#ECF4FF"/>
<path d="M147.694 146.561C146.176 148.387 144.331 150.28 142.276 151.744C140.22 150.28 138.376 148.387 136.857 146.561L142.276 139.761L147.694 146.561Z" fill="#D57080"/>
<path d="M132.484 131.936L142.277 141.351L152.07 131.936L141.463 125.168" fill="#D57080"/>
<path d="M125.786 151.567C124.943 155.029 123.443 161.985 123.443 167.631H111.219C111.219 155.827 113.164 141.619 114.09 135.512C114.395 133.525 115.565 131.764 117.291 130.727C118.407 131.303 119.386 131.992 120.245 132.762C124.374 136.472 125.722 142.064 126.155 145.723C126.387 147.678 126.253 149.656 125.786 151.567Z" fill="#ECF4FF"/>
<path d="M173.336 167.63H161.114C161.114 161.986 159.613 155.028 158.77 151.566C158.305 149.655 158.171 147.679 158.401 145.725C158.923 141.306 160.783 134.062 167.262 130.728C168.989 131.764 170.159 133.523 170.463 135.513C171.39 141.619 173.336 155.828 173.336 167.63Z" fill="#ECF4FF"/>
<path d="M120.245 132.762C120.232 132.851 120.219 132.94 120.21 133.029C119.488 139.607 117.962 154.915 117.962 167.631H111.219C111.219 155.827 113.164 141.619 114.09 135.512C114.395 133.525 115.565 131.764 117.291 130.727C118.407 131.302 119.386 131.992 120.245 132.762Z" fill="#DDEAFB"/>
<path d="M157.225 125.97L152.07 140.288L142.277 130.873L132.484 140.288L127.328 125.97C133.38 123.697 138.76 122.576 141.073 122.16C141.871 122.015 142.682 122.015 143.48 122.16C145.793 122.576 151.173 123.697 157.225 125.97Z" fill="#DDEAFB"/>
<path d="M178.843 85.135L162.25 103.94L125.165 85.8967L103.266 86.2081C103.266 86.2081 92.2674 70.1272 95.6007 54.4104C98.934 38.6972 119.174 48.2206 119.174 48.2206C119.174 48.2206 130.184 31.4114 144.707 31.4114C166.287 31.4114 175.371 52.0307 185.134 44.6509C185.134 44.6509 197.938 68.855 178.843 85.135Z" fill="#9D6B6B"/>
<path d="M125.165 85.8968L103.266 86.2083C103.266 86.2083 92.2674 70.1273 95.6007 54.4105C98.934 38.6973 119.174 48.2207 119.174 48.2207C119.174 48.2207 112.233 59.8235 124.812 69.084C128.87 72.0682 128.089 78.5246 125.165 85.8968Z" fill="#8B5E5E"/>
<path d="M149.711 111.022V123.439C149.711 127.544 146.383 130.873 142.277 130.873C138.17 130.873 134.841 127.544 134.841 123.439V111.022H149.711Z" fill="#FFDDCE"/>
<path d="M144.705 130.467C143.945 130.729 143.128 130.872 142.278 130.872C138.171 130.872 134.841 127.543 134.841 123.438V111.022H139.696V123.438C139.696 126.695 141.79 129.463 144.705 130.467Z" fill="#FFCBBE"/>
<path d="M111.217 100.683C105.856 100.683 101.511 96.3374 101.511 90.9768C101.511 90.2389 101.593 89.5206 101.749 88.8299C103.008 83.2534 111.217 84.1681 111.217 89.885H173.337C173.337 84.1681 181.545 83.2534 182.804 88.8299C182.96 89.5206 183.043 90.2392 183.043 90.9768C183.043 96.3374 178.697 100.683 173.337 100.683" fill="#FFCBBE"/>
<path d="M173.279 96.4922C172.831 96.4922 172.379 96.3594 171.983 96.0832C170.96 95.3691 170.715 93.9538 171.428 92.9306C171.509 92.8153 172.25 91.7786 173.458 90.9151C175.303 89.5955 177.372 89.2938 179.281 90.0639C180.438 90.5307 180.997 91.847 180.53 93.0038C180.063 94.1607 178.747 94.7206 177.59 94.2535C176.426 93.7836 175.136 95.5131 175.123 95.5305C174.685 96.1582 173.988 96.4922 173.279 96.4922Z" fill="#EAAC9D"/>
<path d="M134.841 111.022H149.711V122.461H134.841V111.022Z" fill="#FFCBBE"/>
<path d="M173.336 78.4831V95.8854C173.336 108.389 163.201 118.524 150.697 118.524H133.854C121.351 118.524 111.216 108.389 111.216 95.8854V78.4831C119.237 78.4831 125.742 71.9816 125.742 63.96C125.742 63.96 125.859 64.0687 126.088 64.2678C128.521 66.3662 143.855 78.4831 173.336 78.4831Z" fill="#FFDDCE"/>
<path d="M148.727 118.524H133.855C121.351 118.524 111.216 108.389 111.216 95.8854V78.4831C119.238 78.4831 125.743 71.9816 125.743 63.96C125.743 63.96 125.859 64.0687 126.088 64.2678V95.8854C126.088 108.389 136.223 118.524 148.727 118.524Z" fill="#FFCBBE"/>
<path d="M162.766 98.3942C165.574 98.3942 167.851 97.0101 167.851 95.3027C167.851 93.5954 165.574 92.2113 162.766 92.2113C159.958 92.2113 157.682 93.5954 157.682 95.3027C157.682 97.0101 159.958 98.3942 162.766 98.3942Z" fill="#EAAFA5"/>
<path d="M121.787 98.3942C124.595 98.3942 126.872 97.0101 126.872 95.3027C126.872 93.5954 124.595 92.2113 121.787 92.2113C118.979 92.2113 116.703 93.5954 116.703 95.3027C116.703 97.0101 118.979 98.3942 121.787 98.3942Z" fill="#EAAFA5"/>
<path d="M142.277 106.282C140.066 106.282 137.988 105.421 136.425 103.858C135.494 102.927 135.494 101.417 136.425 100.486C137.356 99.5546 138.866 99.5549 139.798 100.486C140.46 101.148 141.34 101.513 142.277 101.513C143.213 101.513 144.094 101.148 144.756 100.486C145.687 99.5543 147.197 99.5546 148.128 100.486C149.059 101.417 149.059 102.926 148.128 103.858C146.565 105.421 144.487 106.282 142.277 106.282Z" fill="#D57080"/>
<path d="M75.2843 31.4122C97.4631 31.4122 115.442 49.3916 115.442 71.5701V109.686C115.442 120.458 108.583 130.035 98.3839 133.501L75.2846 141.352L52.1853 133.501C41.986 130.035 35.1266 120.458 35.1266 109.686V71.5701C35.1263 49.3916 53.1057 31.4122 75.2843 31.4122Z" fill="#E4936B"/>
<path d="M65.4977 133.501L75.2838 141.351L52.186 133.501C41.9867 130.036 35.1255 120.457 35.1255 109.687V71.5701C35.1255 49.3916 53.1049 31.4122 75.2835 31.4122C65.8881 31.4122 58.2706 49.3916 58.2706 71.5701V109.687C58.2709 120.457 61.178 130.036 65.4977 133.501Z" fill="#E27D47"/>
<path d="M102.706 162.478L94.123 167.631H56.4514L51.4387 160.42C51.4387 148.615 50.4812 145.927 51.4061 139.819C51.7112 137.832 48.5734 131.763 50.2996 130.727C52.0609 129.671 53.8729 128.733 55.6788 127.904C55.6852 127.904 55.6915 127.9 55.6978 127.897C57.2619 127.176 58.82 126.54 60.3362 125.971C66.3895 123.697 71.7685 122.575 74.0832 122.159C74.878 122.016 75.6918 122.016 76.49 122.159C78.8013 122.575 84.1806 123.697 90.2337 125.971C93.5082 127.195 96.9831 128.756 100.27 130.727C101.997 131.763 98.3601 137.832 98.6652 139.819C99.5905 145.927 102.706 150.674 102.706 162.478Z" fill="#5766CB"/>
<path d="M55.6981 127.897C54.3629 129.017 53.4536 130.902 53.2184 133.028C52.4968 139.606 50.9706 154.914 50.9706 167.631H44.2275C44.2275 155.827 50.4812 145.927 51.4064 139.819C51.7116 137.832 48.5737 131.763 50.2999 130.727C52.0612 129.671 53.8732 128.733 55.6792 127.904C55.6852 127.904 55.6915 127.9 55.6981 127.897Z" fill="#3D4FC3"/>
<path d="M65.4926 140.288C65.4926 140.288 67.1645 143.316 69.8656 146.562C71.3845 148.387 73.229 146.302 75.2849 147.764C77.3405 146.302 79.1847 148.387 80.7036 146.562C83.4053 143.316 85.0773 140.288 85.0773 140.288V127.896H65.4926V140.288Z" fill="#ECF4FF"/>
<path d="M80.7028 146.561C79.1845 148.386 77.3397 150.28 75.2843 151.744C73.2287 150.28 71.3842 148.387 69.8659 146.561L75.2843 139.761L80.7028 146.561Z" fill="#D57080"/>
<path d="M65.4926 131.936L75.2852 141.351L85.0782 131.936L74.4714 125.168" fill="#D57080"/>
<path d="M58.7944 151.567C57.9519 155.029 56.4514 161.985 56.4514 167.631H44.2275C44.2275 155.827 46.1732 141.619 47.0985 135.512C47.4036 133.525 48.5737 131.764 50.2999 130.727C51.4158 131.303 52.395 131.992 53.2534 132.762C57.383 136.472 58.7311 142.064 59.1636 145.723C59.3956 147.678 59.2618 149.656 58.7944 151.567Z" fill="#ECF4FF"/>
<path d="M106.344 167.63H94.1229C94.1229 161.986 92.6215 155.028 91.7784 151.566C91.3131 149.655 91.1791 147.679 91.4098 145.725C91.9315 141.306 93.7913 134.062 100.271 130.728C101.997 131.764 103.168 133.523 103.472 135.513C104.398 141.619 106.344 155.828 106.344 167.63Z" fill="#ECF4FF"/>
<path d="M53.2531 132.762C53.2404 132.851 53.2275 132.94 53.2181 133.029C52.4965 139.607 50.9703 154.915 50.9703 167.631H44.2275C44.2275 155.827 46.1732 141.619 47.0985 135.512C47.4036 133.525 48.5737 131.764 50.2999 130.727C51.4155 131.302 52.395 131.992 53.2531 132.762Z" fill="#DDEAFB"/>
<path d="M90.2337 125.97L85.0782 140.288L75.2852 130.873L65.4923 140.288L60.3368 125.97C66.3886 123.697 71.7688 122.576 74.082 122.16C74.8795 122.015 75.6909 122.015 76.4885 122.16C78.802 122.576 84.1822 123.697 90.2337 125.97Z" fill="#DDEAFB"/>
<path d="M82.7202 111.022V123.438C82.7202 127.543 79.3914 130.872 75.2862 130.872C71.1788 130.872 67.8497 127.543 67.8497 123.438V111.022H82.7202Z" fill="#FFDDCE"/>
<path d="M77.7138 130.467C76.9533 130.729 76.1364 130.872 75.2865 130.872C71.1791 130.872 67.85 127.543 67.85 123.438V111.022H72.7046V123.438C72.7049 126.695 74.7988 129.463 77.7138 130.467Z" fill="#FFCBBE"/>
<path d="M67.8497 111.022H82.7202V122.46H67.8497V111.022Z" fill="#FFCBBE"/>
<path d="M106.344 78.8268V95.8875C106.344 108.389 96.2091 118.525 83.7057 118.525H66.8621C54.3609 118.525 44.2242 108.391 44.2242 95.8875V79.0214C48.0789 78.9097 53.3832 78.2519 59.0971 77.0908C70.8065 74.7104 84.2475 70.2115 90.5003 63.9585C90.5 63.9585 96.6855 76.5986 106.344 78.8268Z" fill="#FFDDCE"/>
<path d="M81.7347 118.525H66.8618C54.3606 118.525 44.2239 108.391 44.2239 95.8874V79.0212C48.0786 78.9095 53.3829 78.2517 59.0968 77.0906V95.8874C59.0968 108.389 69.231 118.525 81.7347 118.525Z" fill="#FFCBBE"/>
<path d="M93.5811 100.588C96.3892 100.588 98.6655 99.2036 98.6655 97.4962C98.6655 95.7889 96.3892 94.4048 93.5811 94.4048C90.7731 94.4048 88.4967 95.7889 88.4967 97.4962C88.4967 99.2036 90.7731 100.588 93.5811 100.588Z" fill="#EAAFA5"/>
<path d="M56.9896 100.588C59.7977 100.588 62.0741 99.2036 62.0741 97.4962C62.0741 95.7889 59.7977 94.4048 56.9896 94.4048C54.1816 94.4048 51.9052 95.7889 51.9052 97.4962C51.9052 99.2036 54.1816 100.588 56.9896 100.588Z" fill="#EAAFA5"/>
<path d="M127.712 80.6597C126.09 80.6597 124.77 82.8472 124.77 85.5363C124.77 88.2253 126.09 90.4129 127.712 90.4129C129.335 90.4129 130.654 88.2253 130.654 85.5363C130.654 82.8472 129.335 80.6597 127.712 80.6597Z" fill="#2B4D66"/>
<path d="M156.841 90.4129C158.465 90.4129 159.782 88.2295 159.782 85.5363C159.782 82.843 158.465 80.6597 156.841 80.6597C155.216 80.6597 153.899 82.843 153.899 85.5363C153.899 88.2295 155.216 90.4129 156.841 90.4129Z" fill="#2B4D66"/>
<path d="M61.21 83.1335C61.1082 83.1335 57.6899 83.1594 57.5451 83.1604C56.5761 83.1604 55.7876 83.9486 55.7876 84.9178C55.7876 85.8867 56.5761 86.6753 57.5451 86.6753H58.3468C58.2685 87.1213 58.2288 87.5834 58.2288 88.0499C58.2288 90.7606 59.5664 92.9663 61.2103 92.9663C62.8545 92.9663 64.1918 90.7609 64.1918 88.0499C64.1918 85.3389 62.8539 83.1335 61.21 83.1335Z" fill="#2B4D66"/>
<path d="M93.0227 83.1604C92.8619 83.1591 89.2358 83.1335 89.134 83.1335C87.4898 83.1335 86.1525 85.3389 86.1525 88.0499C86.1525 90.7609 87.4901 92.9663 89.134 92.9663C90.7779 92.9663 92.1155 90.7609 92.1155 88.0499C92.1155 87.5834 92.0758 87.1213 91.9975 86.6753H93.0227C93.9916 86.6753 94.7802 85.887 94.7802 84.9178C94.7799 83.9489 93.9916 83.1607 93.0227 83.1604Z" fill="#2B4D66"/>
<path d="M75.2838 106.325C73.1511 106.325 71.146 105.494 69.6383 103.986C68.7073 103.055 68.7073 101.545 69.6386 100.614C70.5699 99.6828 72.0794 99.6831 73.0107 100.614C73.6179 101.221 74.4251 101.556 75.2841 101.556C76.1431 101.556 76.9503 101.222 77.5578 100.614C78.4888 99.6828 79.9987 99.6828 80.9299 100.614C81.8612 101.545 81.8612 103.055 80.9299 103.986C79.4213 105.494 77.4165 106.325 75.2838 106.325Z" fill="#D57080"/>
<path d="M44.8074 167.503H175.857V184.482H44.8074V167.503Z" fill="#8B5E5E"/>
<path d="M179.46 170.895H41.2055C39.3125 170.895 37.7779 169.36 37.7779 167.467V163.11C37.7779 161.217 39.3125 159.682 41.2055 159.682H179.46C181.353 159.682 182.887 161.217 182.887 163.11V167.467C182.887 169.36 181.353 170.895 179.46 170.895Z" fill="#9D6B6B"/>
<path d="M47.8275 170.896H41.2052C39.3134 170.896 37.7779 169.36 37.7779 167.465V163.11C37.7779 161.215 39.3134 159.682 41.2052 159.682H47.8275C45.936 159.682 44.4002 161.215 44.4002 163.11V167.465C44.4002 169.36 45.9357 170.896 47.8275 170.896Z" fill="#8B5E5E"/>
</g>
<defs>
<clipPath id="clip0_390_272">
<rect width="154.21" height="154.21" fill="white" transform="translate(35.1256 30.8419)"/>
</clipPath>
</defs>
</svg>
