<svg width="112" height="112" viewBox="0 0 112 112" fill="none" xmlns="http://www.w3.org/2000/svg">
<path d="M57.7268 10.0339L99.7268 26.8338C101.36 27.4871 102.667 29.4471 102.667 31.1738V46.6673C102.667 49.234 100.567 51.334 98.0002 51.334H14.0002C11.4335 51.334 9.3335 49.234 9.3335 46.6673V31.1738C9.3335 29.4471 10.6402 27.4871 12.2735 26.8338L54.2735 10.0339C55.2068 9.66057 56.7935 9.66057 57.7268 10.0339Z" stroke="#292D32" stroke-width="5" stroke-miterlimit="10" stroke-linecap="round" stroke-linejoin="round"/>
<path d="M102.667 102.667H9.3335V88.6667C9.3335 86.1 11.4335 84 14.0002 84H98.0002C100.567 84 102.667 86.1 102.667 88.6667V102.667Z" stroke="#292D32" stroke-width="5" stroke-miterlimit="10" stroke-linecap="round" stroke-linejoin="round"/>
<path d="M18.6665 83.9997V51.333" stroke="#292D32" stroke-width="5" stroke-miterlimit="10" stroke-linecap="round" stroke-linejoin="round"/>
<path d="M37.3335 83.9997V51.333" stroke="#292D32" stroke-width="5" stroke-miterlimit="10" stroke-linecap="round" stroke-linejoin="round"/>
<path d="M56 83.9997V51.333" stroke="#292D32" stroke-width="5" stroke-miterlimit="10" stroke-linecap="round" stroke-linejoin="round"/>
<path d="M74.6665 83.9997V51.333" stroke="#292D32" stroke-width="5" stroke-miterlimit="10" stroke-linecap="round" stroke-linejoin="round"/>
<path d="M93.3335 83.9997V51.333" stroke="#292D32" stroke-width="5" stroke-miterlimit="10" stroke-linecap="round" stroke-linejoin="round"/>
<path d="M4.6665 102.667H107.333" stroke="#292D32" stroke-width="5" stroke-miterlimit="10" stroke-linecap="round" stroke-linejoin="round"/>
</svg>
